<svg xmlns="http://www.w3.org/2000/svg" width="500" height="500" viewBox="0 0 500 500">
  <metadata><?xpacket begin="﻿" id="W5M0MpCehiHzreSzNTczkc9d"?>
<x:xmpmeta xmlns:x="adobe:ns:meta/" x:xmptk="Adobe XMP Core 5.6-c140 79.160451, 2017/05/06-01:08:21        ">
   <rdf:RDF xmlns:rdf="http://www.w3.org/1999/02/22-rdf-syntax-ns#">
      <rdf:Description rdf:about=""/>
   </rdf:RDF>
</x:xmpmeta>
                                                                                                    
                                                                                                    
                                                                                                    
                                                                                                    
                                                                                                    
                                                                                                    
                                                                                                    
                                                                                                    
                                                                                                    
                                                                                                    
                                                                                                    
                                                                                                    
                                                                                                    
                                                                                                    
                                                                                                    
                                                                                                    
                                                                                                    
                                                                                                    
                                                                                                    
                                                                                                    
                           
<?xpacket end="w"?></metadata>
<defs>
    <style>
      .cls-1 {
        fill: #fff;
        fill-rule: evenodd;
      }
    </style>
  </defs>
  <path id="ICON" class="cls-1" d="M353.229,148.005a25.239,25.239,0,0,0-7.585-18,26.144,26.144,0,0,0-18.313-7.45H223.72l-77.706,76.352V351.618a25.258,25.258,0,0,0,7.589,18,26.136,26.136,0,0,0,18.317,7.454H327.331a26.139,26.139,0,0,0,18.313-7.454,25.242,25.242,0,0,0,7.585-18V148.005M210.769,338.894h-25.9V313.44h25.9v25.454m103.607,0h-25.9V313.44h25.9v25.454m-103.607-50.9h-25.9v-50.9h25.9v50.9m51.8,50.9h-25.9v-50.9h25.9v50.9m0-76.357h-25.9v-25.45h25.9v25.45m51.8,25.453h-25.9v-50.9h25.9v50.9Zm0,0"/>
</svg>
