<svg xmlns="http://www.w3.org/2000/svg" width="500" height="500" viewBox="0 0 500 500">
  <metadata><?xpacket begin="﻿" id="W5M0MpCehiHzreSzNTczkc9d"?>
<x:xmpmeta xmlns:x="adobe:ns:meta/" x:xmptk="Adobe XMP Core 5.6-c140 79.160451, 2017/05/06-01:08:21        ">
   <rdf:RDF xmlns:rdf="http://www.w3.org/1999/02/22-rdf-syntax-ns#">
      <rdf:Description rdf:about=""/>
   </rdf:RDF>
</x:xmpmeta>
                                                                                                    
                                                                                                    
                                                                                                    
                                                                                                    
                                                                                                    
                                                                                                    
                                                                                                    
                                                                                                    
                                                                                                    
                                                                                                    
                                                                                                    
                                                                                                    
                                                                                                    
                                                                                                    
                                                                                                    
                                                                                                    
                                                                                                    
                                                                                                    
                                                                                                    
                                                                                                    
                           
<?xpacket end="w"?></metadata>
<defs>
    <style>
      .cls-1 {
        fill: #fff;
        fill-rule: evenodd;
      }
    </style>
  </defs>
  <path id="WIFI" class="cls-1" d="M250.171,115.992A260.69,260.69,0,0,0,71.519,186.426l-8.512,7.958,8.261,8.208,26.977,26.8,7.769,7.707,8.02-7.37a200.4,200.4,0,0,1,271.934,0l8.016,7.37,7.773-7.707,26.977-26.8L437,194.384l-8.516-7.958a260,260,0,0,0-178.313-70.434h0Zm0,0M368.179,250.328a175.055,175.055,0,0,0-117.837-45.557H242.9l-0.089.166a175.24,175.24,0,0,0-110.74,45.391l-8.767,7.956,8.431,8.376L159.05,293.8l7.6,7.538,8.02-7.032a113.077,113.077,0,0,1,151,0l8.015,7.032,7.6-7.538,27.313-27.136,8.431-8.376Zm0,0M250.247,383.993l8.02-7.956,44.1-43.719,8.862-8.793-9.694-7.953c-12.862-9.551-27.057-16.752-51.363-16.752-24.22,0-37.5,7.873-51.367,16.752l-9.608,7.953,8.856,8.793,44.1,43.719Zm0,0"/>
</svg>
