<svg xmlns="http://www.w3.org/2000/svg" width="500" height="500" viewBox="0 0 500 500">
  <metadata><?xpacket begin="﻿" id="W5M0MpCehiHzreSzNTczkc9d"?>
<x:xmpmeta xmlns:x="adobe:ns:meta/" x:xmptk="Adobe XMP Core 5.6-c140 79.160451, 2017/05/06-01:08:21        ">
   <rdf:RDF xmlns:rdf="http://www.w3.org/1999/02/22-rdf-syntax-ns#">
      <rdf:Description rdf:about=""/>
   </rdf:RDF>
</x:xmpmeta>
                                                                                                    
                                                                                                    
                                                                                                    
                                                                                                    
                                                                                                    
                                                                                                    
                                                                                                    
                                                                                                    
                                                                                                    
                                                                                                    
                                                                                                    
                                                                                                    
                                                                                                    
                                                                                                    
                                                                                                    
                                                                                                    
                                                                                                    
                                                                                                    
                                                                                                    
                                                                                                    
                           
<?xpacket end="w"?></metadata>
<defs>
    <style>
      .cls-1 {
        fill: #fff;
        fill-rule: evenodd;
      }
    </style>
  </defs>
  <path id="ICON" class="cls-1" d="M201,251.531c-18.107-9.036-30.2-28.983-30.2-52.466,0-31.914,23.286-57.781,52.005-57.781s52.013,25.867,52.013,57.781c0,23.413-12.061,43.329-30.085,52.405,44.586,10.783,78.343,53.766,80.556,105.922l-204.88.15c2.829-51.477,36.413-95.028,80.595-106.011h0ZM266.041,147.97c11.978,12.9,19.427,30.966,19.427,50.967A75.2,75.2,0,0,1,268.7,246.861v0.005c32.417,15.489,56.924,47.515,64.91,86.52v0l46.326-.034C377.976,287,347.97,248.8,308.35,239.214c16.017-8.066,26.734-25.765,26.734-46.579,0-28.359-20.691-51.351-46.218-51.351a42.593,42.593,0,0,0-23.326,7"/>
</svg>
