<svg xmlns="http://www.w3.org/2000/svg" width="500" height="500" viewBox="0 0 500 500">
  <metadata><?xpacket begin="﻿" id="W5M0MpCehiHzreSzNTczkc9d"?>
<x:xmpmeta xmlns:x="adobe:ns:meta/" x:xmptk="Adobe XMP Core 5.6-c140 79.160451, 2017/05/06-01:08:21        ">
   <rdf:RDF xmlns:rdf="http://www.w3.org/1999/02/22-rdf-syntax-ns#">
      <rdf:Description rdf:about=""/>
   </rdf:RDF>
</x:xmpmeta>
                                                                                                    
                                                                                                    
                                                                                                    
                                                                                                    
                                                                                                    
                                                                                                    
                                                                                                    
                                                                                                    
                                                                                                    
                                                                                                    
                                                                                                    
                                                                                                    
                                                                                                    
                                                                                                    
                                                                                                    
                                                                                                    
                                                                                                    
                                                                                                    
                                                                                                    
                                                                                                    
                           
<?xpacket end="w"?></metadata>
<defs>
    <style>
      .cls-1 {
        fill: #fff;
        fill-rule: evenodd;
      }
    </style>
  </defs>
  <path id="ICON" class="cls-1" d="M347.709,116.158H155.316a28.033,28.033,0,0,0-28.151,27.89v36.037H132.8c6.191,0,11.261,5.483,11.261,11.622s-5.07,11.623-11.261,11.623h-5.632V238.2H132.8c6.191,0,11.261,5.48,11.261,11.621s-5.07,11.623-11.261,11.623h-5.632v34.868H132.8c6.191,0,11.261,5.482,11.261,11.623,0,6.2-5.07,11.619-11.261,11.619h-5.632v36.029a28.031,28.031,0,0,0,28.151,27.9H347.709c15.542,0,25.812-12.5,25.812-27.9V144.048c0-15.39-10.274-27.89-25.812-27.89h0ZM309.981,337.466c-13.513,7.754-50.557-12.892-79.342-62.424s-28.273-91.778-14.7-99.532c11.711-6.7,27.311-19.749,38.568,5.631,11.265,25.434,1.413,29.066-10.7,35.982-8.439,4.856.969,25.342,11.61,43.683s23.812,36.707,32.262,31.863c12.108-6.97,20.2-13.665,36.716,8.748,16.5,22.443-2.706,29.3-14.417,36.049h0Zm0,0"/>
</svg>
