<svg xmlns="http://www.w3.org/2000/svg" width="500" height="500" viewBox="0 0 500 500">
  <metadata><?xpacket begin="﻿" id="W5M0MpCehiHzreSzNTczkc9d"?>
<x:xmpmeta xmlns:x="adobe:ns:meta/" x:xmptk="Adobe XMP Core 5.6-c140 79.160451, 2017/05/06-01:08:21        ">
   <rdf:RDF xmlns:rdf="http://www.w3.org/1999/02/22-rdf-syntax-ns#">
      <rdf:Description rdf:about=""/>
   </rdf:RDF>
</x:xmpmeta>
                                                                                                    
                                                                                                    
                                                                                                    
                                                                                                    
                                                                                                    
                                                                                                    
                                                                                                    
                                                                                                    
                                                                                                    
                                                                                                    
                                                                                                    
                                                                                                    
                                                                                                    
                                                                                                    
                                                                                                    
                                                                                                    
                                                                                                    
                                                                                                    
                                                                                                    
                                                                                                    
                           
<?xpacket end="w"?></metadata>
<defs>
    <style>
      .cls-1 {
        fill: #fff;
        fill-rule: evenodd;
      }
    </style>
  </defs>
  <path id="ICON" class="cls-1" d="M347.5,362.726a36.637,36.637,0,0,1-3.167,15.217A40.312,40.312,0,0,1,335.6,390.38,41.242,41.242,0,0,1,306.6,402H194.037a41.257,41.257,0,0,1-29.008-11.618,40.245,40.245,0,0,1-8.713-12.437,36.519,36.519,0,0,1-3.179-15.217V136.612a37.661,37.661,0,0,1,3.179-15.383,39.545,39.545,0,0,1,8.713-12.6,41.274,41.274,0,0,1,29.008-11.621H306.6A41.26,41.26,0,0,1,335.6,108.628a39.607,39.607,0,0,1,8.724,12.6,37.784,37.784,0,0,1,3.167,15.383V362.726ZM321.817,152.307H178.5v194.38H321.817V152.307ZM250.161,355.856a15.857,15.857,0,0,0-11.57,4.909,17.158,17.158,0,0,0,0,24.051,15.914,15.914,0,0,0,23.3,0,17.6,17.6,0,0,0,0-24.051,15.711,15.711,0,0,0-11.733-4.909h0ZM275.523,124.49a5.267,5.267,0,0,0-1.589-4.083,4.951,4.951,0,0,0-3.492-1.465H230.184a5.191,5.191,0,0,0-3.323,1.465,5.068,5.068,0,0,0-1.751,4.083,5.261,5.261,0,0,0,1.6,4.1,4.981,4.981,0,0,0,3.478,1.477h40.258a5,5,0,0,0,3.492-1.477,5.257,5.257,0,0,0,1.589-4.1h0Zm0,0"/>
</svg>
