<svg xmlns="http://www.w3.org/2000/svg" width="500" height="500" viewBox="0 0 500 500">
  <metadata><?xpacket begin="﻿" id="W5M0MpCehiHzreSzNTczkc9d"?>
<x:xmpmeta xmlns:x="adobe:ns:meta/" x:xmptk="Adobe XMP Core 5.6-c140 79.160451, 2017/05/06-01:08:21        ">
   <rdf:RDF xmlns:rdf="http://www.w3.org/1999/02/22-rdf-syntax-ns#">
      <rdf:Description rdf:about=""/>
   </rdf:RDF>
</x:xmpmeta>
                                                                                                    
                                                                                                    
                                                                                                    
                                                                                                    
                                                                                                    
                                                                                                    
                                                                                                    
                                                                                                    
                                                                                                    
                                                                                                    
                                                                                                    
                                                                                                    
                                                                                                    
                                                                                                    
                                                                                                    
                                                                                                    
                                                                                                    
                                                                                                    
                                                                                                    
                                                                                                    
                           
<?xpacket end="w"?></metadata>
<defs>
    <style>
      .cls-1 {
        fill: #fff;
        fill-rule: evenodd;
      }
    </style>
  </defs>
  <path id="ICON" class="cls-1" d="M369.976,309.892c-39.815-31.845-50.953-16.19-69.028,1.783C288.311,324.194,256.4,298,228.824,270.586s-53.93-59.168-41.292-71.723c18.053-17.971,33.79-29.037,1.791-68.658s-53.339-9.193-70.852,8.225c-20.179,20.087-1.063,94.963,73.342,168.986,74.408,73.992,149.7,93.036,169.893,72.936,17.517-17.4,48.085-38.616,8.27-70.46h0Zm0,0,2.671-199.117H305.215a16.815,16.815,0,0,0-16.858,16.769V236.533l25.286-25.151h59A16.813,16.813,0,0,0,389.5,194.613V127.544a16.813,16.813,0,0,0-16.857-16.769h0Zm0,0"/>
</svg>
